<svg xmlns="http://www.w3.org/2000/svg" viewBox="0 0 377.185 233.35">
  <defs>
    <style>
      .cls-1, .cls-3 {
        fill: #295ed9;
      }

      .cls-1 {
        opacity: 0.15;
      }

      .cls-2 {
        fill: #414949;
        font-family: OpenSans-Semibold, Open Sans;
        font-weight: 600;
      }

      .cls-2, .cls-3 {
        font-size: 14px;
      }

      .cls-3 {
        font-family: OpenSans-Bold, Open Sans;
        font-weight: 700;
      }
    </style>
  </defs>
  <g id="Group_3576" data-name="Group 3576" transform="translate(-952.936 -301.65)">
    <path id="Path_2443" data-name="Path 2443" class="cls-1" d="M0-80.31H21.224V146.185H0ZM33.958-33.026H55.182v179.21H33.958Zm33.958,53.3H89.21V146.185H67.986V20.277Zm33.958,80.9H123.1v45.489H101.874V101.176ZM135.9-17.986h21.224V146.666H135.9ZM169.86,60h21.224v86.746H169.86Zm33.958,10.419h21.224v76.327H203.818Z" transform="translate(1099.682 301.65) rotate(90)"/>
    <text id="New_Wave_Energy_Solution_New_Wave_Energy_Americas_Ltd._New_Wave_Energy_Asia_Ltd._New_Wave_Energy_Asia_Hydropower_Solutions_New_Wave_Energy_Europe_Ltd._New_Wave_Energy_Europe_Hydropower_Solutions_New_Wave_Energy_Europe_Solar_Solutions" data-name="New Wave Energy Solution

New Wave Energy Americas Ltd.

New Wave Energy Asia Ltd.

New Wave Energy Asia Hydropower Solutions

New Wave Energy Europe Ltd.

New Wave Energy Europe Hydropower Solutions

New Wave Energy Europe Solar Solutions" class="cls-2" transform="translate(959.121 302)"><tspan x="0" y="15">New Wave Energy Solution</tspan><tspan x="0" y="32"></tspan><tspan x="0" y="49">New Wave Energy Americas Ltd.</tspan><tspan x="0" y="66"></tspan><tspan x="0" y="83">New Wave Energy Asia Ltd.</tspan><tspan x="0" y="100"></tspan><tspan x="0" y="117">New Wave Energy Asia Hydropower Solutions</tspan><tspan x="0" y="134"></tspan><tspan x="0" y="151">New Wave Energy Europe Ltd.</tspan><tspan x="0" y="168"></tspan><tspan x="0" y="185">New Wave Energy Europe Hydropower Solutions</tspan><tspan x="0" y="202"></tspan><tspan x="0" y="219">New Wave Energy Europe Solar Solutions</tspan></text>
    <text id="_534_394_218_21_256_140_129" data-name="534

394

218

21

256

140

129" class="cls-3" transform="translate(1289.121 302)"><tspan x="17.026" y="15">534</tspan><tspan x="41" y="32"></tspan><tspan x="17.026" y="49">394</tspan><tspan x="41" y="66"></tspan><tspan x="17.026" y="83">218</tspan><tspan x="41" y="100"></tspan><tspan x="25.018" y="117">21</tspan><tspan x="41" y="134"></tspan><tspan x="17.026" y="151">256</tspan><tspan x="41" y="168"></tspan><tspan x="17.026" y="185">140</tspan><tspan x="41" y="202"></tspan><tspan x="17.026" y="219">129</tspan></text>
  </g>
</svg>
