<svg xmlns="http://www.w3.org/2000/svg" viewBox="0 0 356.695 175.893">
  <defs>
    <style>
      .cls-1 {
        fill: #63667d;
      }

      .cls-2 {
        fill: #295ed9;
      }

      .cls-3 {
        fill: #eb6325;
      }

      .cls-4 {
        fill: #20aa50;
      }

      .cls-5 {
        fill: none;
        stroke: #fff;
        stroke-miterlimit: 10;
      }

      .cls-6, .cls-8 {
        fill: #fff;
      }

      .cls-7 {
        fill: #414949;
        font-size: 18px;
        font-family: OpenSans, Open Sans;
      }

      .cls-8 {
        font-size: 14px;
        font-family: OpenSans-Semibold, Open Sans;
        font-weight: 600;
      }
    </style>
  </defs>
  <g id="Group_3508" data-name="Group 3508" transform="translate(-204.153 -351.107)">
    <path id="Path_2412" data-name="Path 2412" class="cls-1" d="M229,92h47.282v18.452H229Z" transform="translate(181.812 318.766)"/>
    <path id="Path_2415" data-name="Path 2415" class="cls-2" d="M229,125h47.282v18.452H229Z" transform="translate(181.812 323.822)"/>
    <path id="Path_2427" data-name="Path 2427" class="cls-3" d="M229,125h47.282v18.452H229Z" transform="translate(181.812 361.822)"/>
    <path id="Path_2417" data-name="Path 2417" class="cls-4" d="M229,59h47.282V77.452H229Z" transform="translate(181.812 313.709)"/>
    <path id="Path_2420" data-name="Path 2420" class="cls-2" d="M100.1,87.9V0a87.807,87.807,0,0,1,77,130.179L100.1,87.9" transform="translate(192.046 351.107)"/>
    <path id="Path_2421" data-name="Path 2421" class="cls-4" d="M92.392,87.911,36.4,20.229A87.992,87.992,0,0,1,92.392.1V87.911" transform="translate(199.755 351.096)"/>
    <path id="Path_2422" data-name="Path 2422" class="cls-1" d="M87.986,90.682l77,42.367A87.921,87.921,0,1,1,31.907,23l56.08,67.682" transform="translate(204.161 348.324)"/>
    <path id="Path_2423" data-name="Path 2423" class="cls-5" d="M92.392,0V87.9M36.4,20.217,92.392,87.9m77,42.367-77-42.367" transform="translate(199.755 351.107)"/>
    <path id="Path_2424" data-name="Path 2424" class="cls-6" d="M40.621,148.152a3.469,3.469,0,0,1,2.537.923,2.832,2.832,0,0,1,.923,2.422,3.585,3.585,0,0,1-1.153,2.883,5.4,5.4,0,0,1-3.229,1.038,6.634,6.634,0,0,1-3-.577v-1.96a6.252,6.252,0,0,0,2.883.692q2.076,0,2.076-1.73c0-1.153-.692-1.73-2.191-1.615a2.539,2.539,0,0,0-.923.115,2.138,2.138,0,0,0-.807.231l-.923-.461.461-5.536h6v1.96H39.352l-.231,2.191h.231a1.968,1.968,0,0,1,1.269-.577Zm12.8,4.728H52.038v2.306H49.731V152.88H45v-1.615l4.844-7.15h2.191v6.919h1.384Zm-3.69-1.845v-3.229c0-.577,0-.923.115-1.038h-.115c-.231.346-.461.807-.692,1.153l-2.076,3ZM59.3,147.46A3.3,3.3,0,0,1,58.611,150a2.463,2.463,0,0,1-1.96.923A2.64,2.64,0,0,1,54.69,150,4.938,4.938,0,0,1,54,147.46c0-2.306.923-3.46,2.537-3.46a2.463,2.463,0,0,1,1.96.923A3.377,3.377,0,0,1,59.3,147.46Zm-3.344,0a2.925,2.925,0,0,0,.231,1.384.589.589,0,0,0,.577.461c.461,0,.692-.577.692-1.845s-.231-1.845-.692-1.845a.589.589,0,0,0-.577.461,2.926,2.926,0,0,0-.231,1.384Zm8.534-3.344-6.112,10.956H56.536l6.112-10.956Zm2.537,7.727a3.3,3.3,0,0,1-.692,2.537,2.463,2.463,0,0,1-1.96.923,2.64,2.64,0,0,1-1.96-.923,4.938,4.938,0,0,1-.692-2.537c0-2.306.923-3.46,2.537-3.46a2.463,2.463,0,0,1,1.96.923,3.93,3.93,0,0,1,.807,2.537Zm-3.344,0a2.925,2.925,0,0,0,.231,1.384.588.588,0,0,0,.577.461c.461,0,.692-.577.692-1.845S64.954,150,64.493,150a.589.589,0,0,0-.577.461,2.925,2.925,0,0,0-.231,1.384Z" transform="translate(212.347 325.734)"/>
    <path id="Path_2425" data-name="Path 2425" class="cls-6" d="M67.135,37.486H64.829V28.837l-.807.807-1.269,1.038L61.6,29.3l3.575-2.768h1.96Zm8.765,0H73.594V28.837l-.807.807-1.269,1.038L70.365,29.3l3.575-2.768H75.9Zm8.188-7.727A3.3,3.3,0,0,1,83.4,32.3a2.463,2.463,0,0,1-1.96.923,2.64,2.64,0,0,1-1.96-.923,4.938,4.938,0,0,1-.692-2.537c0-2.306.923-3.46,2.537-3.46a2.463,2.463,0,0,1,1.96.923A3.93,3.93,0,0,1,84.088,29.76Zm-3.344,0a5.615,5.615,0,0,0,.115,1.384.589.589,0,0,0,.577.461c.461,0,.692-.577.692-1.845s-.231-1.845-.692-1.845a.589.589,0,0,0-.577.461,2.839,2.839,0,0,0-.115,1.384Zm8.419-3.344L83.05,37.371H81.2l6.112-10.956h1.845ZM91.7,34.142a3.3,3.3,0,0,1-.692,2.537,2.463,2.463,0,0,1-1.96.923,2.64,2.64,0,0,1-1.96-.923,4.938,4.938,0,0,1-.692-2.537c0-2.306.923-3.46,2.537-3.46a2.463,2.463,0,0,1,1.96.923,2.973,2.973,0,0,1,.807,2.537Zm-3.344,0a5.615,5.615,0,0,0,.115,1.384.589.589,0,0,0,.577.461c.461,0,.692-.577.692-1.845s-.231-1.845-.692-1.845a.589.589,0,0,0-.577.461c0,.346-.115.923-.115,1.384Z" transform="translate(195.162 350.699)"/>
    <path id="Path_2426" data-name="Path 2426" class="cls-6" d="M155.9,60.052a2.833,2.833,0,0,1-.577,1.73,4.342,4.342,0,0,1-1.73,1.038,3.592,3.592,0,0,1,2.076.807,2.347,2.347,0,0,1,.692,1.73,2.9,2.9,0,0,1-1.153,2.422,5.423,5.423,0,0,1-3.344.923,10.592,10.592,0,0,1-3.229-.577v-1.96c.461.231.923.346,1.384.577a6.75,6.75,0,0,0,1.5.231,4.627,4.627,0,0,0,1.73-.346,1.852,1.852,0,0,0,.577-1.269,1.268,1.268,0,0,0-.692-1.153,6.53,6.53,0,0,0-2.076-.346h-.807v-1.73h.807a4.781,4.781,0,0,0,1.845-.346,1.011,1.011,0,0,0,.577-1.153c0-.807-.577-1.269-1.615-1.269a4.1,4.1,0,0,0-1.153.231,6.181,6.181,0,0,0-1.269.577L148.4,58.553a5.66,5.66,0,0,1,3.575-1.038,5.357,5.357,0,0,1,2.652.692,1.977,1.977,0,0,1,1.269,1.845Zm8.765,0a2.833,2.833,0,0,1-.577,1.73,4.343,4.343,0,0,1-1.73,1.038,3.592,3.592,0,0,1,2.076.807,2.347,2.347,0,0,1,.692,1.73,2.9,2.9,0,0,1-1.153,2.422,5.423,5.423,0,0,1-3.344.923,10.592,10.592,0,0,1-3.229-.577v-1.96c.461.231.923.346,1.384.577a6.749,6.749,0,0,0,1.5.231,4.627,4.627,0,0,0,1.73-.346,1.852,1.852,0,0,0,.577-1.269,1.268,1.268,0,0,0-.692-1.153,6.53,6.53,0,0,0-2.076-.346h-.807v-1.73h.807a4.781,4.781,0,0,0,1.845-.346,1.011,1.011,0,0,0,.577-1.153c0-.807-.577-1.269-1.615-1.269a4.1,4.1,0,0,0-1.153.231,6.181,6.181,0,0,0-1.269.577l-1.038-1.615a6.29,6.29,0,0,1,6.343-.346,1.873,1.873,0,0,1,1.153,1.845Zm6.573.807a3.3,3.3,0,0,1-.692,2.537,2.463,2.463,0,0,1-1.96.923,2.64,2.64,0,0,1-1.96-.923,4.938,4.938,0,0,1-.692-2.537c0-2.306.923-3.46,2.537-3.46a2.463,2.463,0,0,1,1.96.923A3.377,3.377,0,0,1,171.234,60.86Zm-3.344,0A5.615,5.615,0,0,0,168,62.244a.589.589,0,0,0,.577.461c.461,0,.692-.577.692-1.845s-.231-1.845-.692-1.845a.589.589,0,0,0-.577.461,5.614,5.614,0,0,0-.115,1.384Zm8.534-3.229-6.112,10.956h-1.845l6.112-10.956Zm2.537,7.611a3.3,3.3,0,0,1-.692,2.537,2.463,2.463,0,0,1-1.96.923,2.64,2.64,0,0,1-1.96-.923,4.938,4.938,0,0,1-.692-2.537c0-2.306.923-3.46,2.537-3.46a2.463,2.463,0,0,1,1.96.923A3.93,3.93,0,0,1,178.961,65.242Zm-3.344,0a5.615,5.615,0,0,0,.115,1.384.589.589,0,0,0,.577.461c.461,0,.692-.577.692-1.845s-.231-1.845-.692-1.845a.589.589,0,0,0-.577.461,5.615,5.615,0,0,0-.115,1.384Z" transform="translate(169.462 352.465)"/>
    <text id="Phone" class="cls-7" transform="translate(465.848 388)"><tspan x="0" y="0">Phone</tspan></text>
    <text id="_180" data-name="180" class="cls-8" transform="translate(434 387)"><tspan x="-11.987" y="0">180</tspan></text>
    <text id="Email" class="cls-7" transform="translate(465.848 426)"><tspan x="0" y="0">Email</tspan></text>
    <text id="_392" data-name="392" class="cls-8" transform="translate(434 425)"><tspan x="-11.987" y="0">392</tspan></text>
    <text id="Self-service" class="cls-7" transform="translate(465.848 465)"><tspan x="0" y="0">Self-service</tspan></text>
    <text id="_49" data-name="49" class="cls-8" transform="translate(434 464)"><tspan x="-7.991" y="0">49</tspan></text>
    <text id="Chat" class="cls-7" transform="translate(465.848 503)"><tspan x="0" y="0">Chat</tspan></text>
    <text id="_0" data-name="0" class="cls-8" transform="translate(434 502)"><tspan x="-3.996" y="0">0</tspan></text>
  </g>
</svg>
