<svg id="U_Bank_Logo" data-name="U+ Bank Logo" xmlns="http://www.w3.org/2000/svg" viewBox="0 0 131 30.4">
  <defs>
    <style>
      .cls-1, .cls-2 {
        fill: #fff;
      }

      .cls-2 {
        opacity: 0.4;
      }
    </style>
  </defs>
  <g id="Bank">
    <path id="Path_53" data-name="Path 53" class="cls-1" d="M49.7,1.3c4.7,0,8.5,3.2,8.5,7.7a6.142,6.142,0,0,1-4.1,6.2c2.7.7,5.6,2.9,5.6,6.7,0,5.1-3.8,8-8.4,8h-13V1.3Zm-7,12.3H50a3.493,3.493,0,0,0,3.7-3.8,4.213,4.213,0,0,0-4-4.3h-7Zm8.6,12.2a4.249,4.249,0,0,0,3.9-4.2,4.1,4.1,0,0,0-4.3-4.1H42.7v8.3Z"/>
    <path id="Path_54" data-name="Path 54" class="cls-1" d="M73.3,8.3c5.2,0,8.1,2.3,8.1,7v9.9c0,.7.4.8,1.1.8a12.275,12.275,0,0,0,1.7-.1v3.5a9.34,9.34,0,0,1-3,.6c-1.6,0-3.5-.7-3.5-2.7v-.4c-1.1,2.2-3.5,3.5-6.8,3.5-4.2,0-7.6-2.4-7.6-6.8,0-4.9,4.1-6.6,9.1-6.6,1.5,0,3.9.2,4.9.3V16c0-3.3-2.2-4.1-4.6-4.1a33.466,33.466,0,0,0-6.7.9L65,9.7A29.064,29.064,0,0,1,73.3,8.3ZM72.9,20c-2.5,0-5.7.5-5.7,3.4,0,2.3,2,3.4,4.3,3.4,2.8,0,5.7-1.8,5.7-4.2V20.4A22.39,22.39,0,0,0,72.9,20Z"/>
    <path id="Path_55" data-name="Path 55" class="cls-1" d="M91.6,8.7l.7,3.6c.1-.5,2-4,6.8-4,4.3,0,8,2.6,8,9V30h-4.5V17.5c0-3.1-1.8-4.9-4.6-4.9-3.6,0-5.4,2.9-5.4,5.7V30H88.1V8.7Z"/>
    <path id="Path_56" data-name="Path 56" class="cls-1" d="M117.5,0V12.9l-.1,5.9,4.2-5.4,4.1-4.7H131l-8.6,10L130.8,30h-5.1l-5.8-8.1-2.3,2.5V30H113V0Z"/>
  </g>
  <g id="Plus_Sign" data-name="Plus Sign">
    <path id="Union_1" data-name="Union 1" class="cls-2" d="M1354.9,844.8v-4H1351v-4h3.9V833h4v3.8h3.9v4h-3.9v4Z" transform="translate(-1330.6 -831.7)"/>
  </g>
  <path id="U" class="cls-1" d="M14.1,30A14.169,14.169,0,0,1,0,15.8V1.3H4V15.9A10.2,10.2,0,0,0,14.1,26,10.289,10.289,0,0,0,24.3,15.9h4A14.169,14.169,0,0,1,14.1,30Z"/>
</svg>
